<svg width="200" height="200" xmlns="http://www.w3.org/2000/svg" version="1.1">

 <g>
  <title>Layer 1</title>
  <g id="SvgjsG1008">
   <svg id="svg_1" viewBox="0 0 15.02 10.25" fill="#8DC63F" height="288" width="288" xmlns="http://www.w3.org/2000/svg">
    <g id="svg_2" class="color000 svgShape" fill="#000000" data-name="Сгруппировать 1601">
     <g id="svg_3" class="color000 svgShape" fill="#000000" data-name="Сгруппировать 1599">
      <g id="svg_4" class="color000 svgShape" fill="#000000" data-name="Сгруппировать 1598">
       <circle id="svg_5" transform="rotate(-87.618 8.13794 2.78296)" class="color2e2b2b svgShape" data-name="Эллипс 63" fill="#8dc63f" r="0.841" cy="2.78399" cx="8.10296"/>
      </g>
     </g>
     <g id="svg_6" class="color000 svgShape" fill="#000000" data-name="Сгруппировать 1600">
      <path id="svg_7" class="color2e2b2b svgShape" data-name="Контур 53" d="m10.31703,4.365a0.187,0.187 0 0 0 -0.251,0l-2.024,1.421l-2.739,-2.869a0.187,0.187 0 0 0 -0.287,0l-1.564,1.874l0,2.18a25.946,25.946 0 0 1 8.116,0l0,-1.472l-1.251,-1.134z" fill="#8dc63f"/>
      <path id="svg_8" class="color2e2b2b svgShape" data-name="Контур 54" d="m15.01998,8.39603l0,-6.007a0.8,0.8 0 0 0 -0.044,-0.254a1.027,1.027 0 0 0 -0.119,-0.238a4.957,4.957 0 0 0 -2.875,-1.426a21.476,21.476 0 0 0 -8.946,0a4.957,4.957 0 0 0 -2.875,1.426a1.027,1.027 0 0 0 -0.119,0.238a0.8,0.8 0 0 0 -0.044,0.254s0,0 0,-0.005l0,6.012c0,0.742 1.059,1.406 2.722,1.845a0.246,0.246 0 0 0 0.064,0.009a0.251,0.251 0 0 0 0.25,-0.251l0,-6.06a0.06,0.06 0 0 0 -0.045,-0.058q-0.168,-0.042 -0.328,-0.087t-0.3,-0.091a5.907,5.907 0 0 1 -1.314,-0.567a2.47,2.47 0 0 1 -0.314,-0.228l0,0a0.751,0.751 0 0 1 -0.316,-0.514a0.487,0.487 0 0 1 0.093,-0.269a2.047,2.047 0 0 1 0.789,-0.615a7.629,7.629 0 0 1 1.559,-0.568a15.614,15.614 0 0 1 2.131,-0.388l0.15,-0.017a22.728,22.728 0 0 1 4.747,0l0.15,0.017a15.615,15.615 0 0 1 2.131,0.388a7.623,7.623 0 0 1 1.559,0.568a2.044,2.044 0 0 1 0.788,0.615a0.486,0.486 0 0 1 0.094,0.269a0.751,0.751 0 0 1 -0.316,0.514l0,0a2.451,2.451 0 0 1 -0.314,0.228a5.907,5.907 0 0 1 -1.311,0.567q-0.148,0.047 -0.3,0.09t-0.33,0.088a0.06,0.06 0 0 0 -0.045,0.058l0,6.06a0.251,0.251 0 0 0 0.25,0.251a0.246,0.246 0 0 0 0.064,-0.009c1.655,-0.439 2.714,-1.102 2.714,-1.845z" fill="#8dc63f"/>
     </g>
    </g>
   </svg>
  </g>
 </g>
</svg>